# Blender 4.2.3 LTS
# www.blender.org
mtllib wall.mtl
o 平面.001
v -200.000000 30.000072 480.000000
v 200.000000 30.000072 480.000000
v -200.000000 0.000072 480.000000
v 200.000000 0.000072 480.000000
vn -0.0000 -0.0000 -1.0000
vt 1.000000 0.000000
vt 0.000000 1.000000
vt 0.000000 0.000000
vt 1.000000 1.000000
s 0
usemtl マテリアル.001
f 2/1/1 3/2/1 1/3/1
f 2/1/1 4/4/1 3/2/1
o 平面.002
v -200.000000 -0.000004 -20.000000
v 200.000000 -0.000004 -20.000000
v -200.000000 29.999996 -20.000004
v 200.000000 29.999996 -20.000004
vn -0.0000 -0.0000 1.0000
vt 1.000000 0.000000
vt 0.000000 1.000000
vt 0.000000 0.000000
vt 1.000000 1.000000
s 0
usemtl マテリアル.001
f 6/5/2 7/6/2 5/7/2
f 6/5/2 8/8/2 7/6/2
o 平面.003
v 200.000015 30.000072 480.000000
v 199.999985 29.999996 -20.000004
v 200.000015 0.000072 480.000000
v 199.999985 -0.000004 -20.000000
vn -1.0000 -0.0000 -0.0000
vt 1.000000 0.000000
vt 0.000000 1.000000
vt 0.000000 0.000000
vt 1.000000 1.000000
s 0
usemtl マテリアル.001
f 10/9/3 11/10/3 9/11/3
f 10/9/3 12/12/3 11/10/3
o 平面.004
v -199.999985 29.999996 -20.000004
v -200.000015 30.000072 480.000000
v -199.999985 -0.000004 -20.000000
v -200.000015 0.000072 480.000000
vn 1.0000 -0.0000 -0.0000
vt 1.000000 0.000000
vt 0.000000 1.000000
vt 0.000000 0.000000
vt 1.000000 1.000000
s 0
usemtl マテリアル.001
f 14/13/4 15/14/4 13/15/4
f 14/13/4 16/16/4 15/14/4
o 立方体
v 110.025391 0.000064 420.000000
v 110.025391 30.000065 420.000000
v 110.025391 0.000046 310.000000
v 110.025391 30.000046 310.000000
v 150.025391 0.000064 420.000000
v 150.025391 30.000065 420.000000
v 150.025391 0.000046 310.000000
v 150.025391 30.000046 310.000000
vn -1.0000 -0.0000 -0.0000
vn 1.0000 -0.0000 -0.0000
vn -0.0000 -0.0000 1.0000
vn -0.0000 -1.0000 -0.0000
vn -0.0000 1.0000 -0.0000
vt 0.625000 0.000000
vt 0.375000 0.250000
vt 0.375000 0.000000
vt 0.625000 0.500000
vt 0.375000 0.750000
vt 0.375000 0.500000
vt 0.625000 0.750000
vt 0.375000 1.000000
vt 0.125000 0.750000
vt 0.125000 0.500000
vt 0.875000 0.500000
vt 0.625000 0.250000
vt 0.625000 1.000000
vt 0.875000 0.750000
s 0
usemtl マテリアル.002
f 18/17/5 19/18/5 17/19/5
f 24/20/6 21/21/6 23/22/6
f 22/23/7 17/24/7 21/21/7
f 23/22/8 17/25/8 19/26/8
f 20/27/9 22/23/9 24/20/9
f 18/17/5 20/28/5 19/18/5
f 24/20/6 22/23/6 21/21/6
f 22/23/7 18/29/7 17/24/7
f 23/22/8 21/21/8 17/25/8
f 20/27/9 18/30/9 22/23/9
o 立方体.001
v -70.000000 0.000010 60.000000
v -70.000000 30.000008 59.999992
v -70.000000 0.000004 30.000000
v -70.000000 30.000004 29.999996
v 90.000000 0.000010 60.000000
v 90.000000 30.000008 59.999992
v 90.000000 0.000004 30.000000
v 90.000000 30.000004 29.999996
vn -1.0000 -0.0000 -0.0000
vn -0.0000 -0.0000 -1.0000
vn 1.0000 -0.0000 -0.0000
vn -0.0000 -0.0000 1.0000
vn -0.0000 -1.0000 -0.0000
vn -0.0000 1.0000 -0.0000
vt 0.625000 0.000000
vt 0.375000 0.250000
vt 0.375000 0.000000
vt 0.625000 0.250000
vt 0.375000 0.500000
vt 0.625000 0.500000
vt 0.375000 0.750000
vt 0.625000 0.750000
vt 0.375000 1.000000
vt 0.125000 0.750000
vt 0.125000 0.500000
vt 0.875000 0.500000
vt 0.625000 1.000000
vt 0.875000 0.750000
s 0
usemtl マテリアル.002
f 26/31/10 27/32/10 25/33/10
f 28/34/11 31/35/11 27/32/11
f 32/36/12 29/37/12 31/35/12
f 30/38/13 25/39/13 29/37/13
f 31/35/14 25/40/14 27/41/14
f 28/42/15 30/38/15 32/36/15
f 26/31/10 28/34/10 27/32/10
f 28/34/11 32/36/11 31/35/11
f 32/36/12 30/38/12 29/37/12
f 30/38/13 26/43/13 25/39/13
f 31/35/14 29/37/14 25/40/14
f 28/42/15 26/44/15 30/38/15
o 立方体.002
v 140.179001 0.000042 280.000000
v 140.179001 30.000042 280.000000
v 140.179001 -0.000004 -20.000000
v 140.179001 29.999996 -20.000004
v 170.179001 0.000042 280.000000
v 170.179001 30.000042 280.000000
v 170.179001 -0.000004 -20.000000
v 170.179001 29.999996 -20.000004
vn -1.0000 -0.0000 -0.0000
vn 1.0000 -0.0000 -0.0000
vn -0.0000 -1.0000 -0.0000
vn -0.0000 1.0000 -0.0000
vt 0.625000 0.000000
vt 0.375000 0.250000
vt 0.375000 0.000000
vt 0.625000 0.500000
vt 0.375000 0.750000
vt 0.375000 0.500000
vt 0.125000 0.750000
vt 0.125000 0.500000
vt 0.875000 0.500000
vt 0.625000 0.750000
vt 0.625000 0.250000
vt 0.875000 0.750000
s 0
usemtl マテリアル.002
f 34/45/16 35/46/16 33/47/16
f 40/48/17 37/49/17 39/50/17
f 39/50/18 33/51/18 35/52/18
f 36/53/19 38/54/19 40/48/19
f 34/45/16 36/55/16 35/46/16
f 40/48/17 38/54/17 37/49/17
f 39/50/18 37/49/18 33/51/18
f 36/53/19 34/56/19 38/54/19
o 立方体.003
v -200.000000 0.000036 240.000000
v -200.000000 30.000034 240.000000
v -200.000000 0.000032 210.000000
v -200.000000 30.000031 210.000000
v -60.000000 0.000036 240.000000
v -60.000000 30.000034 240.000000
v -60.000000 0.000032 210.000000
v -60.000000 30.000031 210.000000
vn -0.0000 -0.0000 -1.0000
vn 1.0000 -0.0000 -0.0000
vn -0.0000 -0.0000 1.0000
vn -0.0000 -1.0000 -0.0000
vn -0.0000 1.0000 -0.0000
vt 0.625000 0.250000
vt 0.375000 0.500000
vt 0.375000 0.250000
vt 0.625000 0.500000
vt 0.375000 0.750000
vt 0.625000 0.750000
vt 0.375000 1.000000
vt 0.125000 0.750000
vt 0.125000 0.500000
vt 0.875000 0.500000
vt 0.625000 1.000000
vt 0.875000 0.750000
s 0
usemtl マテリアル.002
f 44/57/20 47/58/20 43/59/20
f 48/60/21 45/61/21 47/58/21
f 46/62/22 41/63/22 45/61/22
f 47/58/23 41/64/23 43/65/23
f 44/66/24 46/62/24 48/60/24
f 44/57/20 48/60/20 47/58/20
f 48/60/21 46/62/21 45/61/21
f 46/62/22 42/67/22 41/63/22
f 47/58/23 45/61/23 41/64/23
f 44/66/24 42/68/24 46/62/24
o 立方体.004
v 100.000000 0.000024 160.000000
v 100.000000 30.000023 160.000000
v 100.000000 0.000020 130.000000
v 100.000000 30.000019 130.000000
v 140.000000 0.000024 160.000000
v 140.000000 30.000023 160.000000
v 140.000000 0.000020 130.000000
v 140.000000 30.000019 130.000000
vn -1.0000 -0.0000 -0.0000
vn -0.0000 -0.0000 -1.0000
vn -0.0000 -0.0000 1.0000
vn -0.0000 -1.0000 -0.0000
vn -0.0000 1.0000 -0.0000
vt 0.625000 0.000000
vt 0.375000 0.250000
vt 0.375000 0.000000
vt 0.625000 0.250000
vt 0.375000 0.500000
vt 0.625000 0.750000
vt 0.375000 1.000000
vt 0.375000 0.750000
vt 0.125000 0.750000
vt 0.125000 0.500000
vt 0.875000 0.500000
vt 0.625000 0.500000
vt 0.625000 1.000000
vt 0.875000 0.750000
s 0
usemtl マテリアル.002
f 50/69/25 51/70/25 49/71/25
f 52/72/26 55/73/26 51/70/26
f 54/74/27 49/75/27 53/76/27
f 55/73/28 49/77/28 51/78/28
f 52/79/29 54/74/29 56/80/29
f 50/69/25 52/72/25 51/70/25
f 52/72/26 56/80/26 55/73/26
f 54/74/27 50/81/27 49/75/27
f 55/73/28 53/76/28 49/77/28
f 52/79/29 50/82/29 54/74/29
o 立方体.005
v -170.000000 0.000024 160.000000
v -170.000000 30.000023 160.000000
v -170.000000 0.000020 130.000000
v -170.000000 30.000019 130.000000
v 50.000000 0.000024 160.000000
v 50.000000 30.000023 160.000000
v 50.000000 0.000020 130.000000
v 50.000000 30.000019 130.000000
vn -1.0000 -0.0000 -0.0000
vn -0.0000 -0.0000 -1.0000
vn 1.0000 -0.0000 -0.0000
vn -0.0000 -0.0000 1.0000
vn -0.0000 -1.0000 -0.0000
vn -0.0000 1.0000 -0.0000
vt 0.625000 0.000000
vt 0.375000 0.250000
vt 0.375000 0.000000
vt 0.625000 0.250000
vt 0.375000 0.500000
vt 0.625000 0.500000
vt 0.375000 0.750000
vt 0.625000 0.750000
vt 0.375000 1.000000
vt 0.125000 0.750000
vt 0.125000 0.500000
vt 0.875000 0.500000
vt 0.625000 1.000000
vt 0.875000 0.750000
s 0
usemtl マテリアル.002
f 58/83/30 59/84/30 57/85/30
f 60/86/31 63/87/31 59/84/31
f 64/88/32 61/89/32 63/87/32
f 62/90/33 57/91/33 61/89/33
f 63/87/34 57/92/34 59/93/34
f 60/94/35 62/90/35 64/88/35
f 58/83/30 60/86/30 59/84/30
f 60/86/31 64/88/31 63/87/31
f 64/88/32 62/90/32 61/89/32
f 62/90/33 58/95/33 57/91/33
f 63/87/34 61/89/34 57/92/34
f 60/94/35 58/96/35 62/90/35
o 立方体.006
v -150.000000 0.000020 130.500000
v -150.000000 30.000019 130.500000
v -150.000000 0.000004 20.500000
v -150.000000 30.000004 20.499996
v -120.000000 0.000020 130.500000
v -120.000000 30.000019 130.500000
v -120.000000 0.000004 20.500000
v -120.000000 30.000004 20.499996
vn -1.0000 -0.0000 -0.0000
vn -0.0000 -0.0000 -1.0000
vn 1.0000 -0.0000 -0.0000
vn -0.0000 -1.0000 -0.0000
vn -0.0000 1.0000 -0.0000
vt 0.625000 0.000000
vt 0.375000 0.250000
vt 0.375000 0.000000
vt 0.625000 0.250000
vt 0.375000 0.500000
vt 0.625000 0.500000
vt 0.375000 0.750000
vt 0.125000 0.750000
vt 0.125000 0.500000
vt 0.875000 0.500000
vt 0.625000 0.750000
vt 0.875000 0.750000
s 0
usemtl マテリアル.002
f 66/97/36 67/98/36 65/99/36
f 68/100/37 71/101/37 67/98/37
f 72/102/38 69/103/38 71/101/38
f 71/101/39 65/104/39 67/105/39
f 68/106/40 70/107/40 72/102/40
f 66/97/36 68/100/36 67/98/36
f 68/100/37 72/102/37 71/101/37
f 72/102/38 70/107/38 69/103/38
f 71/101/39 69/103/39 65/104/39
f 68/106/40 66/108/40 70/107/40
o 立方体.007
v -150.000000 0.000064 430.000000
v -150.000000 30.000065 430.000000
v -150.000000 0.000060 400.000000
v -150.000000 30.000061 400.000000
v -20.000000 0.000064 430.000000
v -20.000000 30.000065 430.000000
v -20.000000 0.000060 400.000000
v -20.000000 30.000061 400.000000
vn -1.0000 -0.0000 -0.0000
vn -0.0000 -0.0000 -1.0000
vn 1.0000 -0.0000 -0.0000
vn -0.0000 -0.0000 1.0000
vn -0.0000 -1.0000 -0.0000
vn -0.0000 1.0000 -0.0000
vt 0.625000 0.000000
vt 0.375000 0.250000
vt 0.375000 0.000000
vt 0.625000 0.250000
vt 0.375000 0.500000
vt 0.625000 0.500000
vt 0.375000 0.750000
vt 0.625000 0.750000
vt 0.375000 1.000000
vt 0.125000 0.750000
vt 0.125000 0.500000
vt 0.875000 0.500000
vt 0.625000 1.000000
vt 0.875000 0.750000
s 0
usemtl マテリアル.002
f 74/109/41 75/110/41 73/111/41
f 76/112/42 79/113/42 75/110/42
f 80/114/43 77/115/43 79/113/43
f 78/116/44 73/117/44 77/115/44
f 79/113/45 73/118/45 75/119/45
f 76/120/46 78/116/46 80/114/46
f 74/109/41 76/112/41 75/110/41
f 76/112/42 80/114/42 79/113/42
f 80/114/43 78/116/43 77/115/43
f 78/116/44 74/121/44 73/117/44
f 79/113/45 77/115/45 73/118/45
f 76/120/46 74/122/46 78/116/46
o 立方体.008
v -150.000000 0.000060 400.000000
v -150.000000 30.000061 400.000000
v -150.000000 0.000056 370.000000
v -150.000000 30.000057 370.000000
v -120.000000 0.000060 400.000000
v -120.000000 30.000061 400.000000
v -120.000000 0.000056 370.000000
v -120.000000 30.000057 370.000000
vn -1.0000 -0.0000 -0.0000
vn 1.0000 -0.0000 -0.0000
vn -0.0000 -1.0000 -0.0000
vn -0.0000 1.0000 -0.0000
vt 0.625000 0.000000
vt 0.375000 0.250000
vt 0.375000 0.000000
vt 0.625000 0.500000
vt 0.375000 0.750000
vt 0.375000 0.500000
vt 0.125000 0.750000
vt 0.125000 0.500000
vt 0.875000 0.500000
vt 0.625000 0.750000
vt 0.625000 0.250000
vt 0.875000 0.750000
s 0
usemtl マテリアル.002
f 82/123/47 83/124/47 81/125/47
f 88/126/48 85/127/48 87/128/48
f 87/128/49 81/129/49 83/130/49
f 84/131/50 86/132/50 88/126/50
f 82/123/47 84/133/47 83/124/47
f 88/126/48 86/132/48 85/127/48
f 87/128/49 85/127/49 81/129/49
f 84/131/50 82/134/50 86/132/50
o 立方体.009
v -150.000000 0.000056 370.000000
v -150.000000 30.000057 370.000000
v -150.000000 0.000052 340.000000
v -150.000000 30.000050 340.000000
v -60.000000 0.000056 370.000000
v -60.000000 30.000057 370.000000
v -60.000000 0.000052 340.000000
v -60.000000 30.000050 340.000000
vn -1.0000 -0.0000 -0.0000
vn -0.0000 -0.0000 -1.0000
vn 1.0000 -0.0000 -0.0000
vn -0.0000 -0.0000 1.0000
vn -0.0000 -1.0000 -0.0000
vn -0.0000 1.0000 -0.0000
vt 0.625000 0.000000
vt 0.375000 0.250000
vt 0.375000 0.000000
vt 0.625000 0.250000
vt 0.375000 0.500000
vt 0.625000 0.500000
vt 0.375000 0.750000
vt 0.625000 0.750000
vt 0.375000 1.000000
vt 0.125000 0.750000
vt 0.125000 0.500000
vt 0.875000 0.500000
vt 0.625000 1.000000
vt 0.875000 0.750000
s 0
usemtl マテリアル.002
f 90/135/51 91/136/51 89/137/51
f 92/138/52 95/139/52 91/136/52
f 96/140/53 93/141/53 95/139/53
f 94/142/54 89/143/54 93/141/54
f 95/139/55 89/144/55 91/145/55
f 92/146/56 94/142/56 96/140/56
f 90/135/51 92/138/51 91/136/51
f 92/138/52 96/140/52 95/139/52
f 96/140/53 94/142/53 93/141/53
f 94/142/54 90/147/54 89/143/54
f 95/139/55 93/141/55 89/144/55
f 92/146/56 90/148/56 94/142/56
o 立方体.011
v 110.000000 0.000046 310.000000
v 110.000000 30.000046 310.000000
v 110.000000 0.000042 280.000000
v 110.000000 30.000042 280.000000
v 200.000000 0.000046 310.000000
v 200.000000 30.000046 310.000000
v 200.000000 0.000042 280.000000
v 200.000000 30.000042 280.000000
vn -1.0000 -0.0000 -0.0000
vn -0.0000 -0.0000 -1.0000
vn -0.0000 -0.0000 1.0000
vn -0.0000 -1.0000 -0.0000
vn -0.0000 1.0000 -0.0000
vt 0.625000 0.000000
vt 0.375000 0.250000
vt 0.375000 0.000000
vt 0.625000 0.250000
vt 0.375000 0.500000
vt 0.625000 0.750000
vt 0.375000 1.000000
vt 0.375000 0.750000
vt 0.125000 0.750000
vt 0.125000 0.500000
vt 0.875000 0.500000
vt 0.625000 0.500000
vt 0.625000 1.000000
vt 0.875000 0.750000
s 0
usemtl マテリアル.002
f 98/149/57 99/150/57 97/151/57
f 100/152/58 103/153/58 99/150/58
f 102/154/59 97/155/59 101/156/59
f 103/153/60 97/157/60 99/158/60
f 100/159/61 102/154/61 104/160/61
f 98/149/57 100/152/57 99/150/57
f 100/152/58 104/160/58 103/153/58
f 102/154/59 98/161/59 97/155/59
f 103/153/60 101/156/60 97/157/60
f 100/159/61 98/162/61 102/154/61
o 立方体.012
v 30.000000 0.000072 480.000000
v 30.000000 30.000072 480.000000
v 30.000000 0.000054 360.000000
v 30.000000 30.000053 360.000000
v 60.000000 0.000072 480.000000
v 60.000000 30.000072 480.000000
v 60.000000 0.000054 360.000000
v 60.000000 30.000053 360.000000
vn -1.0000 -0.0000 -0.0000
vn -0.0000 -0.0000 -1.0000
vn 1.0000 -0.0000 -0.0000
vn -0.0000 -1.0000 -0.0000
vn -0.0000 1.0000 -0.0000
vt 0.625000 0.000000
vt 0.375000 0.250000
vt 0.375000 0.000000
vt 0.625000 0.250000
vt 0.375000 0.500000
vt 0.625000 0.500000
vt 0.375000 0.750000
vt 0.125000 0.750000
vt 0.125000 0.500000
vt 0.875000 0.500000
vt 0.625000 0.750000
vt 0.875000 0.750000
s 0
usemtl マテリアル.002
f 106/163/62 107/164/62 105/165/62
f 108/166/63 111/167/63 107/164/63
f 112/168/64 109/169/64 111/167/64
f 111/167/65 105/170/65 107/171/65
f 108/172/66 110/173/66 112/168/66
f 106/163/62 108/166/62 107/164/62
f 108/166/63 112/168/63 111/167/63
f 112/168/64 110/173/64 109/169/64
f 111/167/65 109/169/65 105/170/65
f 108/172/66 106/174/66 110/173/66
o 立方体.013
v -10.000000 0.000036 240.000000
v -10.000000 30.000034 240.000000
v -10.000000 0.000032 210.000000
v -10.000000 30.000031 210.000000
v 80.000000 0.000036 240.000000
v 80.000000 30.000034 240.000000
v 80.000000 0.000032 210.000000
v 80.000000 30.000031 210.000000
vn -1.0000 -0.0000 -0.0000
vn -0.0000 -0.0000 -1.0000
vn 1.0000 -0.0000 -0.0000
vn -0.0000 -0.0000 1.0000
vn -0.0000 -1.0000 -0.0000
vn -0.0000 1.0000 -0.0000
vt 0.625000 0.000000
vt 0.375000 0.250000
vt 0.375000 0.000000
vt 0.625000 0.250000
vt 0.375000 0.500000
vt 0.625000 0.500000
vt 0.375000 0.750000
vt 0.625000 0.750000
vt 0.375000 1.000000
vt 0.125000 0.750000
vt 0.125000 0.500000
vt 0.875000 0.500000
vt 0.625000 1.000000
vt 0.875000 0.750000
s 0
usemtl マテリアル.002
f 114/175/67 115/176/67 113/177/67
f 116/178/68 119/179/68 115/176/68
f 120/180/69 117/181/69 119/179/69
f 118/182/70 113/183/70 117/181/70
f 119/179/71 113/184/71 115/185/71
f 116/186/72 118/182/72 120/180/72
f 114/175/67 116/178/67 115/176/67
f 116/178/68 120/180/68 119/179/68
f 120/180/69 118/182/69 117/181/69
f 118/182/70 114/187/70 113/183/70
f 119/179/71 117/181/71 113/184/71
f 116/186/72 114/188/72 118/182/72
o 立方体.016
v -60.000000 0.000024 160.000000
v -60.000000 30.000023 160.000000
v -60.000000 0.000028 180.000000
v -60.000000 30.000027 180.000000
v -90.000000 0.000024 160.000000
v -90.000000 30.000023 160.000000
v -90.000000 0.000028 180.000000
v -90.000000 30.000027 180.000000
vn 1.0000 -0.0000 -0.0000
vn -0.0000 -0.0000 1.0000
vn -1.0000 -0.0000 -0.0000
vn -0.0000 -1.0000 -0.0000
vn -0.0000 1.0000 -0.0000
vt 0.625000 0.000000
vt 0.375000 0.250000
vt 0.375000 0.000000
vt 0.625000 0.250000
vt 0.375000 0.500000
vt 0.625000 0.500000
vt 0.375000 0.750000
vt 0.125000 0.750000
vt 0.125000 0.500000
vt 0.875000 0.500000
vt 0.625000 0.750000
vt 0.875000 0.750000
s 0
usemtl マテリアル.003
f 122/189/73 123/190/73 121/191/73
f 124/192/74 127/193/74 123/190/74
f 128/194/75 125/195/75 127/193/75
f 127/193/76 121/196/76 123/197/76
f 124/198/77 126/199/77 128/194/77
f 122/189/73 124/192/73 123/190/73
f 124/192/74 128/194/74 127/193/74
f 128/194/75 126/199/75 125/195/75
f 127/193/76 125/195/76 121/196/76
f 124/198/77 122/200/77 126/199/77
o 立方体.017
v -120.000000 0.000044 290.000000
v -120.000000 30.000042 290.000000
v -150.000000 0.000044 290.000000
v -150.000000 30.000042 290.000000
v -120.000000 0.000036 240.000000
v -120.000000 30.000034 240.000000
v -150.000000 0.000036 240.000000
v -150.000000 30.000034 240.000000
vn -0.0000 -0.0000 1.0000
vn -1.0000 -0.0000 -0.0000
vn 1.0000 -0.0000 -0.0000
vn -0.0000 -1.0000 -0.0000
vn -0.0000 1.0000 -0.0000
vt 0.625000 0.000000
vt 0.375000 0.250000
vt 0.375000 0.000000
vt 0.625000 0.250000
vt 0.375000 0.500000
vt 0.625000 0.750000
vt 0.375000 1.000000
vt 0.375000 0.750000
vt 0.125000 0.750000
vt 0.125000 0.500000
vt 0.875000 0.500000
vt 0.625000 0.500000
vt 0.625000 1.000000
vt 0.875000 0.750000
s 0
usemtl マテリアル.004
f 130/201/78 131/202/78 129/203/78
f 132/204/79 135/205/79 131/202/79
f 134/206/80 129/207/80 133/208/80
f 135/205/81 129/209/81 131/210/81
f 132/211/82 134/206/82 136/212/82
f 130/201/78 132/204/78 131/202/78
f 132/204/79 136/212/79 135/205/79
f 134/206/80 130/213/80 129/207/80
f 135/205/81 133/208/81 129/209/81
f 132/211/82 130/214/82 134/206/82
o 立方体.018
v -69.500000 0.000046 300.000000
v -69.500000 30.000046 300.000000
v -69.500000 0.000044 290.000000
v -69.500000 30.000042 290.000000
v 20.500000 0.000046 300.000000
v 20.500000 30.000046 300.000000
v 20.500000 0.000044 290.000000
v 20.500000 30.000042 290.000000
vn -1.0000 -0.0000 -0.0000
vn -0.0000 -0.0000 -1.0000
vn -0.0000 -0.0000 1.0000
vn -0.0000 -1.0000 -0.0000
vn -0.0000 1.0000 -0.0000
vt 0.625000 0.000000
vt 0.375000 0.250000
vt 0.375000 0.000000
vt 0.625000 0.250000
vt 0.375000 0.500000
vt 0.625000 0.750000
vt 0.375000 1.000000
vt 0.375000 0.750000
vt 0.125000 0.750000
vt 0.125000 0.500000
vt 0.875000 0.500000
vt 0.625000 0.500000
vt 0.625000 1.000000
vt 0.875000 0.750000
s 0
usemtl マテリアル.005
f 138/215/83 139/216/83 137/217/83
f 140/218/84 143/219/84 139/216/84
f 142/220/85 137/221/85 141/222/85
f 143/219/86 137/223/86 139/224/86
f 140/225/87 142/220/87 144/226/87
f 138/215/83 140/218/83 139/216/83
f 140/218/84 144/226/84 143/219/84
f 142/220/85 138/227/85 137/221/85
f 143/219/86 141/222/86 137/223/86
f 140/225/87 138/228/87 142/220/87
o 立方体.019
v 20.000000 0.000050 330.000000
v 20.000000 30.000050 330.000000
v 20.000000 0.000044 290.000000
v 20.000000 30.000042 290.000000
v 60.000000 0.000050 330.000000
v 60.000000 30.000050 330.000000
v 60.000000 0.000044 290.000000
v 60.000000 30.000042 290.000000
vn -1.0000 -0.0000 -0.0000
vn -0.0000 -0.0000 -1.0000
vn 1.0000 -0.0000 -0.0000
vn -0.0000 -0.0000 1.0000
vn -0.0000 -1.0000 -0.0000
vn -0.0000 1.0000 -0.0000
vt 0.625000 0.000000
vt 0.375000 0.250000
vt 0.375000 0.000000
vt 0.625000 0.250000
vt 0.375000 0.500000
vt 0.625000 0.500000
vt 0.375000 0.750000
vt 0.625000 0.750000
vt 0.375000 1.000000
vt 0.125000 0.750000
vt 0.125000 0.500000
vt 0.875000 0.500000
vt 0.625000 1.000000
vt 0.875000 0.750000
s 0
usemtl マテリアル.007
f 146/229/88 147/230/88 145/231/88
f 148/232/89 151/233/89 147/230/89
f 152/234/90 149/235/90 151/233/90
f 150/236/91 145/237/91 149/235/91
f 151/233/92 145/238/92 147/239/92
f 148/240/93 150/236/93 152/234/93
f 146/229/88 148/232/88 147/230/88
f 148/232/89 152/234/89 151/233/89
f 152/234/90 150/236/90 149/235/90
f 150/236/91 146/241/91 145/237/91
f 151/233/92 149/235/92 145/238/92
f 148/240/93 146/242/93 150/236/93
